<?xml version="1.0" standalone="no"?>
<!DOCTYPE svg PUBLIC "-//W3C//DTD SVG 20010904//EN"
 "http://www.w3.org/TR/2001/REC-SVG-20010904/DTD/svg10.dtd">
<svg version="1.0" xmlns="http://www.w3.org/2000/svg"
 width="400.000000pt" height="100.000000pt" viewBox="0 0 400.000000 100.000000"
 preserveAspectRatio="xMidYMid meet">

<g transform="translate(0.000000,100.000000) scale(0.100000,-0.100000)"
fill="#000000" stroke="none">
<path d="M0 500 l0 -500 2000 0 2000 0 0 500 0 500 -2000 0 -2000 0 0 -500z
m2320 10 l0 -190 -40 0 -40 0 2 182 3 183 30 6 c17 4 33 7 38 8 4 0 7 -84 7
-189z m120 175 c27 -32 -23 -82 -55 -55 -15 13 -20 51 -8 63 12 12 50 7 63 -8z
m-2118 -6 c21 -5 50 -21 65 -34 l28 -23 -24 -26 c-24 -25 -24 -25 -48 -6 -36
28 -83 34 -126 17 -74 -31 -89 -135 -27 -189 38 -35 107 -39 150 -8 l27 19 23
-24 c25 -27 21 -39 -23 -62 -50 -26 -98 -33 -147 -22 -178 40 -202 273 -35
350 46 21 84 23 137 8z m1790 0 c21 -5 50 -21 65 -34 l28 -23 -23 -25 -24 -25
-35 24 c-42 28 -72 30 -118 8 -34 -16 -65 -65 -65 -104 0 -29 26 -76 52 -94
32 -23 109 -21 140 4 l25 19 23 -24 c12 -13 19 -28 15 -34 -15 -25 -91 -54
-140 -54 -167 0 -253 189 -142 309 51 55 124 75 199 53z m-1582 -118 c0 -105
2 -121 21 -145 26 -32 84 -36 120 -7 23 18 24 27 27 145 l4 126 34 0 34 0 0
-126 c0 -142 -14 -184 -72 -219 -42 -24 -126 -24 -169 1 -65 39 -74 61 -77
210 l-4 134 41 0 41 0 0 -119z m548 105 c63 -33 74 -117 22 -171 l-33 -34 37
-64 c20 -36 36 -68 36 -71 0 -3 -18 -6 -40 -6 -39 0 -40 1 -75 70 -35 69 -36
70 -75 70 l-40 0 0 -70 0 -70 -40 0 -40 0 0 180 0 180 110 0 c76 0 120 -4 138
-14z m339 -7 c103 -50 130 -181 56 -270 -43 -51 -94 -69 -200 -69 l-93 0 0
180 0 180 97 0 c78 0 105 -4 140 -21z m1803 -29 l0 -40 40 0 c38 0 40 -2 40
-30 0 -28 -2 -30 -40 -30 l-41 0 3 -72 3 -73 33 -3 c28 -3 32 -7 32 -33 0 -28
-1 -29 -50 -29 -76 0 -90 19 -90 125 l0 85 -30 0 c-27 0 -30 3 -30 30 0 27 3
30 30 30 27 0 30 3 30 34 0 35 9 44 48 45 19 1 22 -4 22 -39z m-213 -52 c38
-18 53 -67 53 -167 l0 -91 -40 0 -40 0 0 93 c0 99 -7 117 -48 117 -55 0 -62
-13 -62 -115 l0 -95 -35 0 -35 0 0 135 0 135 35 0 c19 0 35 -4 35 -9 0 -5 16
-3 36 4 38 13 63 11 101 -7z m-567 -123 l0 -135 -35 0 -35 0 0 135 0 135 35 0
35 0 0 -135z m251 119 c32 -16 68 -81 69 -121 0 -22 -3 -23 -100 -23 -55 0
-100 -4 -100 -8 0 -5 9 -17 20 -27 16 -14 30 -17 74 -12 45 4 57 2 71 -13 16
-18 15 -19 -12 -33 -15 -8 -42 -16 -58 -18 -68 -5 -87 1 -126 40 -36 36 -39
43 -39 96 0 53 3 60 39 96 34 34 44 39 85 39 26 0 61 -7 77 -16z m830 0 c32
-16 68 -81 69 -121 0 -22 -3 -23 -100 -23 -55 0 -100 -4 -100 -8 0 -16 36 -42
61 -44 13 -1 38 2 55 6 23 5 34 2 48 -13 17 -19 17 -20 -11 -34 -15 -8 -42
-16 -58 -18 -68 -5 -87 1 -126 40 -36 36 -39 43 -39 96 0 53 3 60 39 96 34 34
44 39 85 39 26 0 61 -7 77 -16z m303 -4 c13 -13 13 -18 1 -33 -12 -16 -18 -17
-53 -6 -45 13 -92 6 -92 -15 0 -17 13 -22 74 -31 63 -10 96 -37 96 -80 0 -40
-46 -84 -88 -86 -57 -2 -98 4 -124 17 -27 14 -27 16 -12 39 15 23 17 23 51 9
48 -21 98 -15 98 11 0 16 -11 22 -60 33 -36 7 -67 21 -77 33 -26 31 -23 75 8
106 23 23 31 25 95 21 43 -2 74 -9 83 -18z"/>
<path d="M910 570 l0 -50 58 0 c44 0 63 5 75 18 40 44 2 82 -80 82 l-53 0 0
-50z"/>
<path d="M1260 505 l0 -117 62 4 c51 4 65 9 84 31 32 37 40 87 20 126 -22 42
-54 60 -115 68 l-51 6 0 -118z"/>
<path d="M2610 532 c-20 -6 -50 -33 -50 -44 0 -4 30 -8 66 -8 66 0 66 0 52 22
-16 24 -46 37 -68 30z"/>
<path d="M3440 532 c-20 -6 -50 -33 -50 -44 0 -4 30 -8 66 -8 66 0 66 0 52 22
-16 24 -46 37 -68 30z"/>
</g>
</svg>
